<?xml version="1.0" encoding="utf-8"?>
<!-- Generator: Adobe Illustrator 25.2.3, SVG Export Plug-In . SVG Version: 6.00 Build 0)  -->
<svg version="1.1" id="Layer_1" xmlns="http://www.w3.org/2000/svg" xmlns:xlink="http://www.w3.org/1999/xlink" x="0px" y="0px"
	 viewBox="0 0 512 512" style="enable-background:new 0 0 512 512;" xml:space="preserve">
<style type="text/css">
	.st0{fill:#F2B705;}
	.st1{fill:#092947;stroke:#E8F5FF;stroke-width:12;stroke-miterlimit:10;}
</style>
<g>
	<path class="st0" d="M357.8,240.1l-29.3-2.1c-1.8-7.1-4.6-14-8.4-20.3l19.2-22.2c1.8-2.1,1.7-5.3-0.3-7.3L324,173.1
		c-2-2-5.1-2.1-7.2-0.3l-22.2,19.2c-6.3-3.8-13.1-6.6-20.3-8.4l-2.1-29.4c-0.2-2.8-2.5-4.9-5.3-4.9h-21.3c-2.8,0-5.1,2.2-5.3,4.9
		l-2.1,29.4c-7.1,1.8-14,4.6-20.3,8.4l-22.2-19.2c-2.1-1.8-5.3-1.7-7.2,0.3l-15.1,15.1c-2,2-2.1,5.1-0.3,7.3l19.2,22.2
		c-3.8,6.3-6.6,13.1-8.4,20.3l-29.3,2.1c-2.8,0.2-4.9,2.5-4.9,5.3v21.3c0,2.8,2.2,5.1,5,5.3l29.3,2.1c1.8,7.1,4.6,14,8.4,20.3
		l-19.2,22.2c-1.8,2.1-1.7,5.3,0.3,7.2l15.1,15.1c2,2,5.1,2.1,7.2,0.3l22.2-19.2c6.3,3.8,13.1,6.6,20.3,8.4l2.1,29.3
		c0.2,2.8,2.5,4.9,5.3,4.9h21.3c2.8,0,5.1-2.2,5.3-5l2.1-29.3c7.1-1.8,14-4.6,20.3-8.4l22.2,19.2c2.1,1.8,5.3,1.7,7.2-0.3l15.1-15.1
		c2-2,2.1-5.1,0.3-7.2l-19.2-22.2c3.8-6.3,6.6-13.1,8.4-20.3l29.3-2.1c2.8-0.2,4.9-2.5,4.9-5.3v-21.3
		C362.8,242.6,360.6,240.3,357.8,240.1L357.8,240.1z M256.1,288.1c-17.7,0-32-14.3-32-32c0-17.7,14.3-32,32-32c17.7,0,32,14.3,32,32
		S273.8,288.1,256.1,288.1C256.1,288.1,256.1,288.1,256.1,288.1z"/>
	<path class="st1" d="M480.1,53.3c0.1-23.6-18.9-42.8-42.5-42.8c-23.6-0.1-42.8,18.9-42.8,42.5c-0.1,19.5,13.1,36.6,32,41.5V145
		l-39.5,39.6c-4.3,4-4.6,10.8-0.5,15.1c4,4.3,10.8,4.6,15.1,0.5c0.2-0.2,0.4-0.4,0.5-0.5l42.7-42.7c2-2,3.1-4.7,3.1-7.5V94.5
		C466.9,89.7,480.1,72.8,480.1,53.3z"/>
	<path class="st1" d="M124.9,184.5L85.4,145V94.5c22.8-5.9,36.5-29.2,30.7-52C110.1,19.7,86.8,6,64,11.9S27.5,41,33.4,63.9
		C37.2,78.9,49,90.6,64,94.5v54.9c0,2.8,1.1,5.5,3.1,7.5l42.7,42.7c4.3,4,11.1,3.8,15.1-0.5C128.7,195,128.7,188.6,124.9,184.5z"/>
	<path class="st1" d="M288.1,10.7h-64c-5.9,0-10.7,4.8-10.7,10.7v64c0,5.9,4.8,10.7,10.7,10.7h21.3v21.3c0,5.9,4.8,10.7,10.7,10.7
		c5.9,0,10.7-4.8,10.7-10.7V96h21.3c5.9,0,10.7-4.8,10.7-10.7c0,0,0,0,0,0v-64C298.8,15.4,294,10.7,288.1,10.7
		C288.1,10.7,288.1,10.7,288.1,10.7z"/>
	<path class="st1" d="M469.5,416.1h-21.3v-53.4c0-2.8-1.1-5.5-3.1-7.5l-42.7-42.7c-4.3-4-11.1-3.8-15.1,0.5
		c-3.8,4.1-3.8,10.4,0,14.5l39.5,39.6v48.9h-21.3c-5.9,0-10.7,4.8-10.7,10.7v0v64c0,5.9,4.8,10.7,10.7,10.7h0h64
		c5.9,0,10.7-4.8,10.7-10.7v0v-64C480.2,420.9,475.4,416.1,469.5,416.1L469.5,416.1L469.5,416.1z"/>
	<path class="st1" d="M124.9,327.6c4-4.3,3.8-11.1-0.5-15.1c-4.1-3.8-10.4-3.8-14.5,0l-42.7,42.7c-2,2-3.1,4.7-3.1,7.5v53.4H42.7
		c-5.9,0-10.7,4.8-10.7,10.7l0,0v64c0,5.9,4.8,10.7,10.7,10.7c0,0,0,0,0,0h64c5.9,0,10.7-4.8,10.7-10.7l0,0v-64
		c0-5.9-4.8-10.7-10.7-10.7c0,0,0,0,0,0H85.4v-48.9L124.9,327.6z"/>
	<path class="st1" d="M266.8,417.6v-22.9c0-5.9-4.8-10.7-10.7-10.7c-5.9,0-10.7,4.8-10.7,10.7v22.9c-22.8,5.9-36.5,29.2-30.7,52
		c5.9,22.8,29.2,36.5,52,30.7c22.8-5.9,36.5-29.2,30.7-52C293.5,433.3,281.8,421.5,266.8,417.6L266.8,417.6z"/>
</g>
</svg>
